<svg width="69" height="69" viewBox="0 0 69 69" fill="none" xmlns="http://www.w3.org/2000/svg">
<path fill-rule="evenodd" clip-rule="evenodd" d="M34.5 69.0002C53.5538 69.0002 69 53.5541 69 34.5002C69 15.4464 53.5538 0.000244141 34.5 0.000244141C15.4462 0.000244141 0 15.4464 0 34.5002C0 53.5541 15.4462 69.0002 34.5 69.0002Z" fill="#5454D4" fill-opacity="0.1"/>
<path d="M28.0134 47.3336H41.9867C45.6667 47.3336 47.1334 45.0803 47.3067 42.3336L48 31.3203C48.1867 28.4403 45.8934 26.0003 43 26.0003C42.1867 26.0003 41.44 25.5336 41.0667 24.8136L40.1067 22.8803C39.4934 21.6669 37.8934 20.6669 36.5334 20.6669H33.48C32.1067 20.6669 30.5067 21.6669 29.8934 22.8803L28.9334 24.8136C28.56 25.5336 27.8134 26.0003 27 26.0003C24.1067 26.0003 21.8134 28.4403 22 31.3203L22.6934 42.3336C22.8534 45.0803 24.3334 47.3336 28.0134 47.3336Z" stroke="#5454D4" stroke-width="2" stroke-linecap="round" stroke-linejoin="round"/>
<path d="M33 28.6669H37" stroke="#5454D4" stroke-width="2" stroke-linecap="round" stroke-linejoin="round"/>
<path d="M35 42.0002C37.3866 42.0002 39.3333 40.0536 39.3333 37.6669C39.3333 35.2802 37.3866 33.3336 35 33.3336C32.6133 33.3336 30.6666 35.2802 30.6666 37.6669C30.6666 40.0536 32.6133 42.0002 35 42.0002Z" stroke="#5454D4" stroke-width="2" stroke-linecap="round" stroke-linejoin="round"/>
</svg>
